<svg width="52" height="52" viewBox="0 0 52 52" fill="none" xmlns="http://www.w3.org/2000/svg">
<g clip-path="url(#clip0_2707_19708)">
<path d="M0.5 24.5864C0.5 13.0464 0.5 7.27647 4.08501 3.69146C7.67003 0.106445 13.44 0.106445 24.98 0.106445H27.02C38.56 0.106445 44.3299 0.106445 47.915 3.69146C51.5 7.27647 51.5 13.0464 51.5 24.5864V26.6264C51.5 38.1665 51.5 43.9364 47.915 47.5215C44.3299 51.1064 38.56 51.1064 27.02 51.1064H24.98C13.44 51.1064 7.67003 51.1064 4.08501 47.5215C0.5 43.9364 0.5 38.1665 0.5 26.6264V24.5864Z" fill="#FF7A2F"/>
<g clip-path="url(#clip1_2707_19708)">
<path d="M25.6672 26.8824C30.2998 26.8824 34.0552 23.127 34.0552 18.4944C34.0552 13.8618 30.2998 10.1064 25.6672 10.1064C21.0347 10.1064 17.2793 13.8619 17.2793 18.4945C17.285 23.1246 21.0371 26.8767 25.6672 26.8824ZM25.6672 13.9778C28.1617 13.9778 30.1839 16 30.1839 18.4945C30.1839 20.9889 28.1617 23.0111 25.6672 23.0111C23.1727 23.0111 21.1506 20.9889 21.1506 18.4945C21.1506 16 23.1728 13.9778 25.6672 13.9778Z" fill="white"/>
<path d="M33.8832 30.8571C34.7948 30.2566 35.3441 29.2386 35.3454 28.1471C35.3581 27.2412 34.8469 26.4093 34.033 26.0114C33.1967 25.5937 32.1957 25.6877 31.452 26.254C28.0051 28.7669 23.33 28.7669 19.8831 26.254C19.1382 25.6907 18.139 25.5968 17.3021 26.0114C16.4886 26.4093 15.9772 27.2402 15.9885 28.1458C15.9904 29.2371 16.5395 30.2548 17.4506 30.8557C18.6195 31.6331 19.8924 32.2413 21.2316 32.6624C21.4588 32.7329 21.6932 32.7983 21.935 32.8586L18.0352 36.6719C17.0122 37.6645 16.9875 39.2984 17.98 40.3214C18.9726 41.3444 20.6065 41.3692 21.6296 40.3766C21.6509 40.3559 21.6718 40.3349 21.6924 40.3135L25.667 36.1995L29.6494 40.3212C30.6411 41.345 32.2751 41.3711 33.2989 40.3793C34.3227 39.3876 34.3487 37.7536 33.357 36.7298C33.3362 36.7084 33.3151 36.6874 33.2936 36.6667L29.4003 32.8572C29.642 32.7953 29.8773 32.7295 30.1062 32.6598C31.4439 32.2404 32.7157 31.6334 33.8832 30.8571Z" fill="white"/>
</g>
</g>
<defs>
<clipPath id="clip0_2707_19708">
<rect width="51" height="51" fill="white" transform="translate(0.5 0.106445)"/>
</clipPath>
<clipPath id="clip1_2707_19708">
<rect width="31" height="31" fill="white" transform="translate(10.167 10.1064)"/>
</clipPath>
</defs>
</svg>
