<svg width="52" height="52" viewBox="0 0 52 52" fill="none" xmlns="http://www.w3.org/2000/svg">
<g clip-path="url(#clip0_2707_19714)">
<path d="M0.5 24.5864C0.5 13.0464 0.5 7.27647 4.08501 3.69146C7.67003 0.106445 13.44 0.106445 24.98 0.106445H27.02C38.56 0.106445 44.3299 0.106445 47.915 3.69146C51.5 7.27647 51.5 13.0464 51.5 24.5864V26.6264C51.5 38.1665 51.5 43.9364 47.915 47.5215C44.3299 51.1064 38.56 51.1064 27.02 51.1064H24.98C13.44 51.1064 7.67003 51.1064 4.08501 47.5215C0.5 43.9364 0.5 38.1665 0.5 26.6264V24.5864Z" fill="#204990"/>
<g clip-path="url(#clip1_2707_19714)">
<path d="M11.6505 25.0753L18.5055 27.6338L21.1588 36.1668C21.3285 36.7133 21.9968 36.9153 22.4404 36.5527L26.2615 33.4377C26.662 33.1113 27.2325 33.0951 27.6511 33.3989L34.543 38.4025C35.0175 38.7474 35.6897 38.4874 35.8087 37.9141L40.8574 13.629C40.9873 13.0027 40.3719 12.4802 39.7755 12.7109L11.6424 23.5637C10.9482 23.8315 10.9542 24.8144 11.6505 25.0753ZM20.7312 26.2719L34.1284 18.0205C34.3691 17.8727 34.6169 18.1982 34.4101 18.39L23.3535 28.6677C22.9649 29.0294 22.7142 29.5135 22.6432 30.039L22.2666 32.8302C22.2167 33.2028 21.6932 33.2398 21.5903 32.8792L20.1418 27.7894C19.9759 27.2089 20.2177 26.5888 20.7312 26.2719Z" fill="white"/>
</g>
</g>
<defs>
<clipPath id="clip0_2707_19714">
<rect width="51" height="51" fill="white" transform="translate(0.5 0.106445)"/>
</clipPath>
<clipPath id="clip1_2707_19714">
<rect width="29.75" height="29.75" fill="white" transform="translate(11.125 10.7314)"/>
</clipPath>
</defs>
</svg>
