<svg width="52" height="52" viewBox="0 0 52 52" fill="none" xmlns="http://www.w3.org/2000/svg">
<g clip-path="url(#clip0_2707_19705)">
<path d="M0.5 24.5864C0.5 13.0464 0.5 7.27647 4.08501 3.69146C7.67003 0.106445 13.44 0.106445 24.98 0.106445H27.02C38.56 0.106445 44.3299 0.106445 47.915 3.69146C51.5 7.27647 51.5 13.0464 51.5 24.5864V26.6264C51.5 38.1665 51.5 43.9364 47.915 47.5215C44.3299 51.1064 38.56 51.1064 27.02 51.1064H24.98C13.44 51.1064 7.67003 51.1064 4.08501 47.5215C0.5 43.9364 0.5 38.1665 0.5 26.6264V24.5864Z" fill="#204990"/>
<path d="M27.6363 36.8479C16.0126 36.8479 9.3827 28.8791 9.10645 15.6191H14.9289C15.1202 25.3516 19.4126 29.4741 22.8126 30.3241V15.6191H28.2953V24.0129C31.6528 23.6516 35.1799 19.8266 36.3699 15.6191H41.8525C40.9387 20.8041 37.1137 24.6291 34.3937 26.2016C37.1137 27.4766 41.4702 30.8129 43.1277 36.8479H37.0925C35.7962 32.8104 32.5665 29.6866 28.2953 29.2616V36.8479H27.6363Z" fill="white"/>
</g>
<defs>
<clipPath id="clip0_2707_19705">
<rect width="51" height="51" fill="white" transform="translate(0.5 0.106445)"/>
</clipPath>
</defs>
</svg>
