<svg width="15" height="14" viewBox="0 0 15 14" fill="none" xmlns="http://www.w3.org/2000/svg">
<g clip-path="url(#clip0_2781_50167)">
<path d="M1.03634 6.75001L4.26222 7.95401L5.51083 11.9695C5.59073 12.2267 5.90521 12.3218 6.11396 12.1511L7.91211 10.6852C8.1006 10.5316 8.36907 10.524 8.56605 10.667L11.8093 13.0216C12.0326 13.1839 12.3489 13.0616 12.4049 12.7918L14.7808 1.36351C14.8419 1.06877 14.5523 0.822882 14.2717 0.931428L1.03256 6.03867C0.705851 6.16467 0.708697 6.62723 1.03634 6.75001ZM5.30961 7.31309L11.6142 3.4301C11.7275 3.36052 11.8441 3.51373 11.7468 3.60398L6.54366 8.44051C6.36077 8.61075 6.2428 8.83858 6.20939 9.08587L6.03215 10.3993C6.00867 10.5747 5.76232 10.5921 5.71393 10.4224L5.03227 8.02723C4.9542 7.75405 5.06797 7.46224 5.30961 7.31309Z" fill="#204991"/>
</g>
<defs>
<clipPath id="clip0_2781_50167">
<rect width="14" height="14" fill="white" transform="translate(0.789062)"/>
</clipPath>
</defs>
</svg>
